<mxfile host="app.diagrams.net" modified="2022-07-08T22:45:14.514Z" agent="5.0 (Macintosh; Intel Mac OS X 10_15_7) AppleWebKit/605.1.15 (KHTML, like Gecko) Version/15.4 Safari/605.1.15" etag="FWWg8QjNv6WnlQ70yMs9" version="20.0.4" type="github">
  <diagram name="Page-1" id="bfe91b75-5d2c-26a0-9c1d-138518896778">
    <mxGraphModel dx="3043" dy="1873" grid="1" gridSize="10" guides="1" tooltips="1" connect="1" arrows="1" fold="1" page="1" pageScale="1" pageWidth="1100" pageHeight="850" background="none" math="0" shadow="0">
      <root>
        <mxCell id="0" />
        <mxCell id="1" parent="0" />
        <mxCell id="NYhFjM4AT_t--Yr5wofG-42" value="VLAN50 Fuse - 192.168.50.0/24&lt;br&gt;Can not Access: pfSense Web" style="rounded=1;whiteSpace=wrap;html=1;shadow=0;comic=0;strokeColor=#001DBC;strokeWidth=2;fillColor=#0050ef;fontFamily=Verdana;fontSize=28;align=center;arcSize=11;verticalAlign=top;fontColor=#ffffff;" parent="1" vertex="1">
          <mxGeometry x="75" y="1340" width="1065" height="340" as="geometry" />
        </mxCell>
        <mxCell id="7c3789c024ecab99-82" value="VLAN10 EVIL - 10.10.10.0/24&lt;br&gt;&amp;nbsp;for Malware analysis, infected Machines&lt;br&gt;Can not Access: Anything but just the Internet" style="rounded=1;whiteSpace=wrap;html=1;shadow=0;comic=0;strokeColor=#A50040;strokeWidth=2;fillColor=#d80073;fontFamily=Verdana;fontSize=28;align=center;arcSize=11;verticalAlign=top;fontColor=#ffffff;" parent="1" vertex="1">
          <mxGeometry x="78" y="1700" width="1065" height="340" as="geometry" />
        </mxCell>
        <mxCell id="7c3789c024ecab99-81" value="VLAN1030 IOT&amp;nbsp;- 10.10.30.0/24&lt;br&gt;IoT devices, Hive, Lidl Gateway" style="rounded=1;whiteSpace=wrap;html=1;shadow=0;comic=0;strokeColor=#d6b656;strokeWidth=2;fillColor=#fff2cc;fontFamily=Verdana;fontSize=28;align=center;arcSize=11;verticalAlign=top;" parent="1" vertex="1">
          <mxGeometry x="75" y="900" width="1065" height="420" as="geometry" />
        </mxCell>
        <mxCell id="7c3789c024ecab99-79" value="VLAN 20 HOME_SERVICES - 192.168.40.0/24&lt;br&gt;K8s, Docker, Internal VMs&lt;br&gt;Can not Access: pfSense Web" style="rounded=1;whiteSpace=wrap;html=1;shadow=0;comic=0;strokeColor=#d79b00;strokeWidth=2;fillColor=#ffcd28;fontFamily=Verdana;fontSize=28;align=center;arcSize=11;verticalAlign=top;gradientColor=#ffa500;" parent="1" vertex="1">
          <mxGeometry x="78" y="462" width="1065" height="420" as="geometry" />
        </mxCell>
        <mxCell id="7c3789c024ecab99-78" value="Home Network 192.168.1.0/24" style="rounded=1;whiteSpace=wrap;html=1;shadow=0;comic=0;strokeColor=#036897;strokeWidth=2;fillColor=none;fontFamily=Verdana;fontSize=28;fontColor=#6881B3;align=center;arcSize=11;verticalAlign=top;fontStyle=1" parent="1" vertex="1">
          <mxGeometry x="75" y="20" width="1065" height="420" as="geometry" />
        </mxCell>
        <mxCell id="7c3789c024ecab99-8" value="PfSense - LAN&lt;br&gt;192.168.55.1/24" style="verticalAlign=top;verticalLabelPosition=bottom;labelPosition=center;align=center;html=1;fillColor=#f8cecc;strokeColor=#b85450;gradientDirection=north;strokeWidth=2;shape=mxgraph.networks.firewall;rounded=0;shadow=0;comic=0;fontSize=33;fontStyle=1" parent="1" vertex="1">
          <mxGeometry x="1720" y="1269.41" width="200" height="175.59" as="geometry" />
        </mxCell>
        <mxCell id="7c3789c024ecab99-52" style="edgeStyle=none;html=1;labelBackgroundColor=none;endArrow=none;endFill=0;strokeWidth=5;fontFamily=Verdana;fontSize=15;fontColor=#036897;exitX=0.5;exitY=0.94;exitDx=0;exitDy=0;exitPerimeter=0;dashed=1;" parent="1" source="7c3789c024ecab99-58" target="7c3789c024ecab99-8" edge="1">
          <mxGeometry relative="1" as="geometry">
            <mxPoint x="1780.9999999999995" y="907" as="targetPoint" />
          </mxGeometry>
        </mxCell>
        <mxCell id="7c3789c024ecab99-6" value="Printer" style="fontColor=#0066CC;verticalAlign=top;verticalLabelPosition=bottom;labelPosition=center;align=center;html=1;fillColor=#CCCCCC;strokeColor=#6881B3;gradientColor=none;gradientDirection=north;strokeWidth=2;shape=mxgraph.networks.printer;rounded=0;shadow=0;comic=0;fontStyle=1;fontSize=27;" parent="1" vertex="1">
          <mxGeometry x="770.0000000000002" y="295" width="100" height="100" as="geometry" />
        </mxCell>
        <mxCell id="7c3789c024ecab99-12" value="" style="fontColor=#0066CC;verticalAlign=top;verticalLabelPosition=bottom;labelPosition=center;align=center;html=1;fillColor=#CCCCCC;strokeColor=#6881B3;gradientColor=none;gradientDirection=north;strokeWidth=2;shape=mxgraph.networks.mobile;rounded=0;shadow=0;comic=0;" parent="1" vertex="1">
          <mxGeometry x="280.0000000000003" y="70" width="50" height="100" as="geometry" />
        </mxCell>
        <mxCell id="7c3789c024ecab99-20" value="" style="fontColor=#0066CC;verticalAlign=top;verticalLabelPosition=bottom;labelPosition=center;align=center;html=1;fillColor=#CCCCCC;strokeColor=#6881B3;gradientColor=none;gradientDirection=north;strokeWidth=2;shape=mxgraph.networks.pc;rounded=0;shadow=0;comic=0;" parent="1" vertex="1">
          <mxGeometry x="130.00000000000028" y="765" width="100" height="70" as="geometry" />
        </mxCell>
        <mxCell id="7c3789c024ecab99-21" value="" style="fontColor=#0066CC;verticalAlign=top;verticalLabelPosition=bottom;labelPosition=center;align=center;html=1;fillColor=#CCCCCC;strokeColor=#6881B3;gradientColor=none;gradientDirection=north;strokeWidth=2;shape=mxgraph.networks.pc;rounded=0;shadow=0;comic=0;" parent="1" vertex="1">
          <mxGeometry x="270.0000000000003" y="765" width="100" height="70" as="geometry" />
        </mxCell>
        <mxCell id="7c3789c024ecab99-23" value="" style="fontColor=#0066CC;verticalAlign=top;verticalLabelPosition=bottom;labelPosition=center;align=center;html=1;fillColor=#CCCCCC;strokeColor=#6881B3;gradientColor=none;gradientDirection=north;strokeWidth=2;shape=mxgraph.networks.pc;rounded=0;shadow=0;comic=0;" parent="1" vertex="1">
          <mxGeometry x="390.0000000000003" y="765" width="100" height="70" as="geometry" />
        </mxCell>
        <mxCell id="7c3789c024ecab99-25" value="" style="fontColor=#0066CC;verticalAlign=top;verticalLabelPosition=bottom;labelPosition=center;align=center;html=1;fillColor=#CCCCCC;strokeColor=#6881B3;gradientColor=none;gradientDirection=north;strokeWidth=2;shape=mxgraph.networks.pc;rounded=0;shadow=0;comic=0;" parent="1" vertex="1">
          <mxGeometry x="510.0000000000003" y="765" width="100" height="70" as="geometry" />
        </mxCell>
        <mxCell id="7c3789c024ecab99-27" value="" style="fontColor=#0066CC;verticalAlign=top;verticalLabelPosition=bottom;labelPosition=center;align=center;html=1;fillColor=#CCCCCC;strokeColor=#6881B3;gradientColor=none;gradientDirection=north;strokeWidth=2;shape=mxgraph.networks.pc;rounded=0;shadow=0;comic=0;" parent="1" vertex="1">
          <mxGeometry x="640.0000000000002" y="765" width="100" height="70" as="geometry" />
        </mxCell>
        <mxCell id="7c3789c024ecab99-34" value="Home Assistant" style="fontColor=#0066CC;verticalAlign=top;verticalLabelPosition=bottom;labelPosition=center;align=center;html=1;fillColor=#CCCCCC;strokeColor=#6881B3;gradientColor=none;gradientDirection=north;strokeWidth=2;shape=mxgraph.networks.pc;rounded=0;shadow=0;comic=0;fontStyle=1;fontSize=26;" parent="1" vertex="1">
          <mxGeometry x="200.00000000000026" y="1205.0017647058824" width="100" height="70" as="geometry" />
        </mxCell>
        <mxCell id="7c3789c024ecab99-53" value="Internet" style="html=1;fillColor=#f8cecc;strokeColor=#b85450;gradientDirection=north;strokeWidth=2;shape=mxgraph.networks.cloud;rounded=0;shadow=0;comic=0;align=center;fontSize=28;" parent="1" vertex="1">
          <mxGeometry x="1850" y="70" width="330" height="140" as="geometry" />
        </mxCell>
        <mxCell id="NYhFjM4AT_t--Yr5wofG-4" style="edgeStyle=orthogonalEdgeStyle;rounded=0;orthogonalLoop=1;jettySize=auto;html=1;entryX=1;entryY=0.5;entryDx=0;entryDy=0;fontSize=29;strokeWidth=6;" parent="1" source="7c3789c024ecab99-54" target="NYhFjM4AT_t--Yr5wofG-56" edge="1">
          <mxGeometry relative="1" as="geometry">
            <mxPoint x="1568" y="319.9000000000001" as="targetPoint" />
          </mxGeometry>
        </mxCell>
        <mxCell id="7c3789c024ecab99-54" value="BT Internet Modem" style="fontColor=#0066CC;verticalAlign=top;verticalLabelPosition=bottom;labelPosition=center;align=center;html=1;fillColor=#CCCCCC;strokeColor=#6881B3;gradientColor=none;gradientDirection=north;strokeWidth=2;shape=mxgraph.networks.router;rounded=0;shadow=0;comic=0;fontSize=17;fontStyle=1" parent="1" vertex="1">
          <mxGeometry x="1963" y="305" width="100" height="30" as="geometry" />
        </mxCell>
        <mxCell id="7c3789c024ecab99-58" value="" style="fontColor=#0066CC;verticalAlign=top;verticalLabelPosition=bottom;labelPosition=center;align=center;html=1;fillColor=#CCCCCC;strokeColor=#6881B3;gradientColor=none;gradientDirection=north;strokeWidth=2;shape=mxgraph.networks.server_storage;rounded=0;shadow=0;comic=0;" parent="1" vertex="1">
          <mxGeometry x="1729" y="870" width="181" height="155" as="geometry" />
        </mxCell>
        <mxCell id="7c3789c024ecab99-57" value="" style="fontColor=#0066CC;verticalAlign=top;verticalLabelPosition=bottom;labelPosition=center;align=center;html=1;fillColor=#CCCCCC;strokeColor=#6881B3;gradientColor=none;gradientDirection=north;strokeWidth=2;shape=mxgraph.networks.storage;rounded=0;shadow=0;comic=0;" parent="1" vertex="1">
          <mxGeometry x="300" y="1535" width="100" height="100" as="geometry" />
        </mxCell>
        <mxCell id="7c3789c024ecab99-61" value="" style="fontColor=#0066CC;verticalAlign=top;verticalLabelPosition=bottom;labelPosition=center;align=center;html=1;fillColor=#CCCCCC;strokeColor=#6881B3;gradientColor=none;gradientDirection=north;strokeWidth=2;shape=mxgraph.networks.pc;rounded=0;shadow=0;comic=0;" parent="1" vertex="1">
          <mxGeometry x="114.00000000000026" y="1910.0017647058824" width="100" height="70" as="geometry" />
        </mxCell>
        <mxCell id="7c3789c024ecab99-62" value="" style="fontColor=#0066CC;verticalAlign=top;verticalLabelPosition=bottom;labelPosition=center;align=center;html=1;fillColor=#CCCCCC;strokeColor=#6881B3;gradientColor=none;gradientDirection=north;strokeWidth=2;shape=mxgraph.networks.pc;rounded=0;shadow=0;comic=0;" parent="1" vertex="1">
          <mxGeometry x="254.00000000000023" y="1910.0017647058824" width="100" height="70" as="geometry" />
        </mxCell>
        <mxCell id="7c3789c024ecab99-63" value="" style="fontColor=#0066CC;verticalAlign=top;verticalLabelPosition=bottom;labelPosition=center;align=center;html=1;fillColor=#CCCCCC;strokeColor=#6881B3;gradientColor=none;gradientDirection=north;strokeWidth=2;shape=mxgraph.networks.pc;rounded=0;shadow=0;comic=0;" parent="1" vertex="1">
          <mxGeometry x="374.0000000000002" y="1910.0017647058824" width="100" height="70" as="geometry" />
        </mxCell>
        <mxCell id="7c3789c024ecab99-64" value="" style="fontColor=#0066CC;verticalAlign=top;verticalLabelPosition=bottom;labelPosition=center;align=center;html=1;fillColor=#CCCCCC;strokeColor=#6881B3;gradientColor=none;gradientDirection=north;strokeWidth=2;shape=mxgraph.networks.pc;rounded=0;shadow=0;comic=0;" parent="1" vertex="1">
          <mxGeometry x="494.0000000000002" y="1910.0017647058824" width="100" height="70" as="geometry" />
        </mxCell>
        <mxCell id="7c3789c024ecab99-65" value="" style="fontColor=#0066CC;verticalAlign=top;verticalLabelPosition=bottom;labelPosition=center;align=center;html=1;fillColor=#CCCCCC;strokeColor=#6881B3;gradientColor=none;gradientDirection=north;strokeWidth=2;shape=mxgraph.networks.pc;rounded=0;shadow=0;comic=0;" parent="1" vertex="1">
          <mxGeometry x="624.0000000000002" y="1910.0017647058824" width="100" height="70" as="geometry" />
        </mxCell>
        <mxCell id="NYhFjM4AT_t--Yr5wofG-1" value="" style="endArrow=none;html=1;rounded=0;fontSize=29;entryX=0.5;entryY=0;entryDx=0;entryDy=0;entryPerimeter=0;exitX=0.5;exitY=1;exitDx=0;exitDy=0;exitPerimeter=0;strokeWidth=6;" parent="1" source="7c3789c024ecab99-53" target="7c3789c024ecab99-54" edge="1">
          <mxGeometry width="50" height="50" relative="1" as="geometry">
            <mxPoint x="1400" y="540" as="sourcePoint" />
            <mxPoint x="1890" y="470" as="targetPoint" />
          </mxGeometry>
        </mxCell>
        <mxCell id="NYhFjM4AT_t--Yr5wofG-6" value="" style="html=1;fillColor=#CCCCCC;strokeColor=#6881B3;gradientColor=none;gradientDirection=north;strokeWidth=2;shape=mxgraph.networks.comm_link_edge;html=1;labelBackgroundColor=none;endArrow=none;endFill=0;fontFamily=Verdana;fontSize=20;exitX=0;exitY=0.25;exitDx=0;exitDy=0;" parent="1" source="NYhFjM4AT_t--Yr5wofG-56" edge="1">
          <mxGeometry width="100" height="100" relative="1" as="geometry">
            <mxPoint x="1430" y="263" as="sourcePoint" />
            <mxPoint x="1130.0000000000005" y="197" as="targetPoint" />
          </mxGeometry>
        </mxCell>
        <mxCell id="NYhFjM4AT_t--Yr5wofG-7" value="" style="fontColor=#0066CC;verticalAlign=top;verticalLabelPosition=bottom;labelPosition=center;align=center;html=1;fillColor=#CCCCCC;strokeColor=#6881B3;gradientColor=none;gradientDirection=north;strokeWidth=2;shape=mxgraph.networks.mobile;rounded=0;shadow=0;comic=0;" parent="1" vertex="1">
          <mxGeometry x="370.0000000000003" y="140" width="50" height="100" as="geometry" />
        </mxCell>
        <mxCell id="NYhFjM4AT_t--Yr5wofG-8" value="Smart TV" style="sketch=0;pointerEvents=1;shadow=0;dashed=0;html=1;strokeColor=none;fillColor=#505050;labelPosition=center;verticalLabelPosition=bottom;verticalAlign=top;outlineConnect=0;align=center;shape=mxgraph.office.devices.tv;fontSize=29;" parent="1" vertex="1">
          <mxGeometry x="920" y="140" width="59" height="45" as="geometry" />
        </mxCell>
        <mxCell id="NYhFjM4AT_t--Yr5wofG-9" value="" style="shape=image;html=1;verticalAlign=top;verticalLabelPosition=bottom;labelBackgroundColor=#ffffff;imageAspect=0;aspect=fixed;image=https://cdn4.iconfinder.com/data/icons/miu-black-social-2/60/playstation-128.png;fontSize=29;" parent="1" vertex="1">
          <mxGeometry x="350" y="281" width="128" height="128" as="geometry" />
        </mxCell>
        <mxCell id="NYhFjM4AT_t--Yr5wofG-11" value="iPad" style="image;html=1;image=img/lib/clip_art/computers/iPad_128x128.png;fontSize=27;" parent="1" vertex="1">
          <mxGeometry x="950" y="281" width="80" height="80" as="geometry" />
        </mxCell>
        <mxCell id="NYhFjM4AT_t--Yr5wofG-12" value="Retro Gaming" style="shape=image;html=1;verticalAlign=top;verticalLabelPosition=bottom;labelBackgroundColor=#ffffff;imageAspect=0;aspect=fixed;image=https://cdn0.iconfinder.com/data/icons/game-asset-1/24/gamepad-128.png;fontSize=21;fontStyle=1" parent="1" vertex="1">
          <mxGeometry x="546.5" y="233" width="128" height="128" as="geometry" />
        </mxCell>
        <mxCell id="NYhFjM4AT_t--Yr5wofG-13" value="Gaming PC" style="fontColor=#0066CC;verticalAlign=top;verticalLabelPosition=bottom;labelPosition=center;align=center;html=1;outlineConnect=0;fillColor=#CCCCCC;strokeColor=#6881B3;gradientColor=none;gradientDirection=north;strokeWidth=2;shape=mxgraph.networks.pc;fontSize=27;" parent="1" vertex="1">
          <mxGeometry x="160" y="248" width="100" height="70" as="geometry" />
        </mxCell>
        <mxCell id="NYhFjM4AT_t--Yr5wofG-14" value="work" style="image;html=1;image=img/lib/clip_art/computers/Laptop_128x128.png;fontSize=27;" parent="1" vertex="1">
          <mxGeometry x="760" y="90" width="80" height="80" as="geometry" />
        </mxCell>
        <mxCell id="NYhFjM4AT_t--Yr5wofG-15" value="Macbook" style="image;html=1;image=img/lib/clip_art/computers/MacBook_128x128.png;fontSize=27;" parent="1" vertex="1">
          <mxGeometry x="490" y="80" width="80" height="80" as="geometry" />
        </mxCell>
        <mxCell id="NYhFjM4AT_t--Yr5wofG-16" value="Laptop" style="verticalLabelPosition=bottom;sketch=0;aspect=fixed;html=1;verticalAlign=top;strokeColor=none;align=center;outlineConnect=0;shape=mxgraph.citrix.laptop_2;fontSize=27;" parent="1" vertex="1">
          <mxGeometry x="90" y="53.5" width="116" height="86.5" as="geometry" />
        </mxCell>
        <mxCell id="NYhFjM4AT_t--Yr5wofG-17" value="Laptop" style="sketch=0;pointerEvents=1;shadow=0;dashed=0;html=1;strokeColor=none;fillColor=#505050;labelPosition=center;verticalLabelPosition=bottom;verticalAlign=top;outlineConnect=0;align=center;shape=mxgraph.office.devices.laptop;fontSize=21;" parent="1" vertex="1">
          <mxGeometry x="972" y="46" width="68" height="44" as="geometry" />
        </mxCell>
        <mxCell id="NYhFjM4AT_t--Yr5wofG-29" value="" style="endArrow=classic;html=1;rounded=0;fontSize=26;strokeWidth=6;entryX=1;entryY=1;entryDx=0;entryDy=0;exitX=0.702;exitY=0.097;exitDx=0;exitDy=0;exitPerimeter=0;" parent="1" source="7c3789c024ecab99-58" target="NYhFjM4AT_t--Yr5wofG-57" edge="1">
          <mxGeometry width="50" height="50" relative="1" as="geometry">
            <mxPoint x="990" y="720" as="sourcePoint" />
            <mxPoint x="1593.1999999999998" y="598.1999999999998" as="targetPoint" />
          </mxGeometry>
        </mxCell>
        <mxCell id="NYhFjM4AT_t--Yr5wofG-30" value="" style="endArrow=classic;html=1;rounded=0;fontSize=26;strokeWidth=6;entryX=0.75;entryY=1;entryDx=0;entryDy=0;exitX=0.5;exitY=0;exitDx=0;exitDy=0;exitPerimeter=0;" parent="1" source="7c3789c024ecab99-58" target="NYhFjM4AT_t--Yr5wofG-57" edge="1">
          <mxGeometry width="50" height="50" relative="1" as="geometry">
            <mxPoint x="990" y="720" as="sourcePoint" />
            <mxPoint x="1565" y="600" as="targetPoint" />
          </mxGeometry>
        </mxCell>
        <mxCell id="NYhFjM4AT_t--Yr5wofG-31" value="" style="endArrow=classic;html=1;rounded=0;fontSize=26;strokeWidth=10;entryX=0.149;entryY=0.097;entryDx=0;entryDy=0;entryPerimeter=0;exitX=0.25;exitY=1;exitDx=0;exitDy=0;fontColor=#67AB9F;fillColor=#ffe6cc;strokeColor=#d79b00;" parent="1" source="NYhFjM4AT_t--Yr5wofG-57" target="7c3789c024ecab99-58" edge="1">
          <mxGeometry width="50" height="50" relative="1" as="geometry">
            <mxPoint x="1505" y="600" as="sourcePoint" />
            <mxPoint x="1030" y="620" as="targetPoint" />
          </mxGeometry>
        </mxCell>
        <mxCell id="NYhFjM4AT_t--Yr5wofG-32" value="" style="endArrow=classic;html=1;rounded=0;fontSize=26;strokeWidth=10;entryX=0;entryY=0.14;entryDx=0;entryDy=0;entryPerimeter=0;exitX=0;exitY=1;exitDx=0;exitDy=0;fillColor=#ffe6cc;strokeColor=#d79b00;" parent="1" source="NYhFjM4AT_t--Yr5wofG-57" target="7c3789c024ecab99-58" edge="1">
          <mxGeometry width="50" height="50" relative="1" as="geometry">
            <mxPoint x="1476.7999999999997" y="598.1999999999998" as="sourcePoint" />
            <mxPoint x="1030" y="620" as="targetPoint" />
          </mxGeometry>
        </mxCell>
        <mxCell id="NYhFjM4AT_t--Yr5wofG-66" style="edgeStyle=orthogonalEdgeStyle;rounded=0;orthogonalLoop=1;jettySize=auto;html=1;dashed=1;fontSize=33;strokeWidth=5;" parent="1" source="NYhFjM4AT_t--Yr5wofG-33" edge="1">
          <mxGeometry relative="1" as="geometry">
            <mxPoint x="1860" y="795" as="targetPoint" />
          </mxGeometry>
        </mxCell>
        <mxCell id="NYhFjM4AT_t--Yr5wofG-33" value="Bond0&lt;br&gt;Internet" style="ellipse;whiteSpace=wrap;html=1;fontSize=20;fillColor=none;strokeWidth=2;fontStyle=1" parent="1" vertex="1">
          <mxGeometry x="1940" y="755" width="150" height="80" as="geometry" />
        </mxCell>
        <mxCell id="NYhFjM4AT_t--Yr5wofG-69" style="edgeStyle=orthogonalEdgeStyle;rounded=0;orthogonalLoop=1;jettySize=auto;html=1;dashed=1;fontSize=33;strokeWidth=5;fillColor=#ffe6cc;strokeColor=#d79b00;" parent="1" source="NYhFjM4AT_t--Yr5wofG-34" edge="1">
          <mxGeometry relative="1" as="geometry">
            <mxPoint x="1590" y="710" as="targetPoint" />
          </mxGeometry>
        </mxCell>
        <mxCell id="NYhFjM4AT_t--Yr5wofG-34" value="Bond1&lt;br&gt;pfSense LAN" style="ellipse;whiteSpace=wrap;html=1;fontSize=20;strokeWidth=2;fillColor=none;fontStyle=1" parent="1" vertex="1">
          <mxGeometry x="1340" y="670" width="120" height="80" as="geometry" />
        </mxCell>
        <mxCell id="NYhFjM4AT_t--Yr5wofG-43" value="" style="fontColor=#0066CC;verticalAlign=top;verticalLabelPosition=bottom;labelPosition=center;align=center;html=1;fillColor=#CCCCCC;strokeColor=#6881B3;gradientColor=none;gradientDirection=north;strokeWidth=2;shape=mxgraph.networks.pc;rounded=0;shadow=0;comic=0;" parent="1" vertex="1">
          <mxGeometry x="160.00000000000026" y="1550.0017647058824" width="100" height="70" as="geometry" />
        </mxCell>
        <mxCell id="NYhFjM4AT_t--Yr5wofG-48" value="" style="endArrow=none;html=1;rounded=0;fontSize=20;strokeWidth=6;entryX=0;entryY=0.5;entryDx=0;entryDy=0;entryPerimeter=0;" parent="1" target="7c3789c024ecab99-8" edge="1">
          <mxGeometry width="50" height="50" relative="1" as="geometry">
            <mxPoint x="1260" y="1172" as="sourcePoint" />
            <mxPoint x="850" y="910" as="targetPoint" />
          </mxGeometry>
        </mxCell>
        <mxCell id="NYhFjM4AT_t--Yr5wofG-49" value="" style="endArrow=none;html=1;rounded=0;fontSize=20;strokeWidth=6;" parent="1" edge="1">
          <mxGeometry width="50" height="50" relative="1" as="geometry">
            <mxPoint x="1250" y="2000" as="sourcePoint" />
            <mxPoint x="1250" y="680" as="targetPoint" />
          </mxGeometry>
        </mxCell>
        <mxCell id="NYhFjM4AT_t--Yr5wofG-51" value="" style="endArrow=none;html=1;rounded=0;fontSize=20;strokeWidth=6;" parent="1" source="7c3789c024ecab99-79" edge="1">
          <mxGeometry width="50" height="50" relative="1" as="geometry">
            <mxPoint x="800" y="860" as="sourcePoint" />
            <mxPoint x="1250" y="680" as="targetPoint" />
          </mxGeometry>
        </mxCell>
        <mxCell id="NYhFjM4AT_t--Yr5wofG-52" value="" style="endArrow=none;html=1;rounded=0;fontSize=20;strokeWidth=6;" parent="1" edge="1">
          <mxGeometry width="50" height="50" relative="1" as="geometry">
            <mxPoint x="1140" y="1171.2014542611414" as="sourcePoint" />
            <mxPoint x="1247" y="1172.54" as="targetPoint" />
          </mxGeometry>
        </mxCell>
        <mxCell id="NYhFjM4AT_t--Yr5wofG-53" value="" style="endArrow=none;html=1;rounded=0;fontSize=20;strokeWidth=6;" parent="1" edge="1">
          <mxGeometry width="50" height="50" relative="1" as="geometry">
            <mxPoint x="1143" y="1560.0014542611414" as="sourcePoint" />
            <mxPoint x="1250" y="1561.34" as="targetPoint" />
          </mxGeometry>
        </mxCell>
        <mxCell id="NYhFjM4AT_t--Yr5wofG-54" value="" style="endArrow=none;html=1;rounded=0;fontSize=20;strokeWidth=6;" parent="1" edge="1">
          <mxGeometry width="50" height="50" relative="1" as="geometry">
            <mxPoint x="1140" y="2000.0014542611416" as="sourcePoint" />
            <mxPoint x="1247" y="2001.3400000000001" as="targetPoint" />
          </mxGeometry>
        </mxCell>
        <mxCell id="NYhFjM4AT_t--Yr5wofG-55" value="Security Onion" style="shape=image;html=1;verticalAlign=top;verticalLabelPosition=bottom;labelBackgroundColor=#ffffff;imageAspect=0;aspect=fixed;image=https://cdn4.iconfinder.com/data/icons/fruits-and-veggies-2/270/fruits-and-veggies-icons_onion-128.png;fontSize=20;strokeWidth=2;fillColor=none;" parent="1" vertex="1">
          <mxGeometry x="950" y="1840" width="128" height="128" as="geometry" />
        </mxCell>
        <mxCell id="c4OLY-X5bbmTI7L81C6x-1" style="edgeStyle=orthogonalEdgeStyle;rounded=0;orthogonalLoop=1;jettySize=auto;html=1;entryX=0.226;entryY=0.091;entryDx=0;entryDy=0;entryPerimeter=0;strokeWidth=5;" parent="1" source="NYhFjM4AT_t--Yr5wofG-56" target="NYhFjM4AT_t--Yr5wofG-57" edge="1">
          <mxGeometry relative="1" as="geometry" />
        </mxCell>
        <mxCell id="c4OLY-X5bbmTI7L81C6x-2" style="edgeStyle=orthogonalEdgeStyle;rounded=0;orthogonalLoop=1;jettySize=auto;html=1;exitX=0.75;exitY=1;exitDx=0;exitDy=0;entryX=0.5;entryY=0;entryDx=0;entryDy=0;strokeWidth=5;" parent="1" source="NYhFjM4AT_t--Yr5wofG-56" target="NYhFjM4AT_t--Yr5wofG-57" edge="1">
          <mxGeometry relative="1" as="geometry" />
        </mxCell>
        <mxCell id="NYhFjM4AT_t--Yr5wofG-56" value="OpenWRT" style="image;html=1;image=img/lib/clip_art/networking/Wireless_Router_128x128.png;fontSize=17;fontStyle=1" parent="1" vertex="1">
          <mxGeometry x="1480" y="120" width="200" height="210" as="geometry" />
        </mxCell>
        <mxCell id="NYhFjM4AT_t--Yr5wofG-57" value="" style="image;html=1;image=img/lib/clip_art/networking/Switch_128x128.png" parent="1" vertex="1">
          <mxGeometry x="1610" y="462" width="310" height="198" as="geometry" />
        </mxCell>
        <mxCell id="NYhFjM4AT_t--Yr5wofG-59" value="WAN-192.168.1.0/24" style="text;html=1;strokeColor=none;fillColor=none;align=center;verticalAlign=middle;whiteSpace=wrap;rounded=0;fontSize=33;fontStyle=1" parent="1" vertex="1">
          <mxGeometry x="1931" y="1200" width="60" height="30" as="geometry" />
        </mxCell>
        <mxCell id="NYhFjM4AT_t--Yr5wofG-60" value="192.168.1.0/24" style="text;html=1;strokeColor=none;fillColor=none;align=center;verticalAlign=middle;whiteSpace=wrap;rounded=0;fontSize=33;fontStyle=1" parent="1" vertex="1">
          <mxGeometry x="1991" y="700" width="60" height="30" as="geometry" />
        </mxCell>
        <mxCell id="c4OLY-X5bbmTI7L81C6x-4" value="VLAN10 (EVIL) - no ip interface&lt;br style=&quot;font-size: 14px;&quot;&gt;VLAN50 - FUSE - 192.168.50.254&lt;br style=&quot;font-size: 14px;&quot;&gt;VLAN55- pfSense - 192.168.55.254 (doesnt make a difference)&lt;br&gt;" style="text;html=1;strokeColor=none;fillColor=none;align=center;verticalAlign=middle;whiteSpace=wrap;rounded=0;fontStyle=1;fontSize=14;" parent="1" vertex="1">
          <mxGeometry x="1280" y="520" width="240" height="30" as="geometry" />
        </mxCell>
        <mxCell id="c4OLY-X5bbmTI7L81C6x-5" value="" style="sketch=0;points=[[0.015,0.015,0],[0.985,0.015,0],[0.985,0.985,0],[0.015,0.985,0],[0.25,0,0],[0.5,0,0],[0.75,0,0],[1,0.25,0],[1,0.5,0],[1,0.75,0],[0.75,1,0],[0.5,1,0],[0.25,1,0],[0,0.75,0],[0,0.5,0],[0,0.25,0]];verticalLabelPosition=bottom;html=1;verticalAlign=top;aspect=fixed;align=center;pointerEvents=1;shape=mxgraph.cisco19.dns_server;fillColor=#005073;strokeColor=none;" parent="1" vertex="1">
          <mxGeometry x="674.5" y="140" width="49.5" height="90" as="geometry" />
        </mxCell>
        <mxCell id="c4OLY-X5bbmTI7L81C6x-7" value="192.168.1.254" style="text;html=1;strokeColor=none;fillColor=none;align=center;verticalAlign=middle;whiteSpace=wrap;rounded=0;fontSize=14;fontStyle=1" parent="1" vertex="1">
          <mxGeometry x="1940" y="510" width="60" height="30" as="geometry" />
        </mxCell>
        <mxCell id="ooJVKOI1h2YbClv-LT1r-1" value="Temp Sensors" style="sketch=0;outlineConnect=0;fontColor=#232F3E;gradientColor=none;fillColor=#3F8624;strokeColor=none;dashed=0;verticalLabelPosition=bottom;verticalAlign=top;align=center;html=1;fontSize=24;fontStyle=1;aspect=fixed;pointerEvents=1;shape=mxgraph.aws4.iot_thing_temperature_sensor;" vertex="1" parent="1">
          <mxGeometry x="160" y="1010" width="130" height="130" as="geometry" />
        </mxCell>
        <mxCell id="ooJVKOI1h2YbClv-LT1r-2" value="" style="outlineConnect=0;dashed=0;verticalLabelPosition=bottom;verticalAlign=top;align=center;html=1;shape=mxgraph.aws3.mqtt_protocol;fillColor=#5294CF;gradientColor=none;" vertex="1" parent="1">
          <mxGeometry x="363.5" y="1050" width="96.5" height="90" as="geometry" />
        </mxCell>
        <mxCell id="ooJVKOI1h2YbClv-LT1r-3" value="" style="sketch=0;outlineConnect=0;fontColor=#232F3E;gradientColor=none;fillColor=#3F8624;strokeColor=none;dashed=0;verticalLabelPosition=bottom;verticalAlign=top;align=center;html=1;fontSize=12;fontStyle=0;aspect=fixed;pointerEvents=1;shape=mxgraph.aws4.iot_thing_temperature_sensor;" vertex="1" parent="1">
          <mxGeometry x="542.5" y="990" width="130" height="130" as="geometry" />
        </mxCell>
        <mxCell id="ooJVKOI1h2YbClv-LT1r-4" value="Intrusion Detection" style="sketch=0;points=[[0.015,0.015,0],[0.985,0.015,0],[0.985,0.985,0],[0.015,0.985,0],[0.25,0,0],[0.5,0,0],[0.75,0,0],[1,0.25,0],[1,0.5,0],[1,0.75,0],[0.75,1,0],[0.5,1,0],[0.25,1,0],[0,0.75,0],[0,0.5,0],[0,0.25,0]];verticalLabelPosition=bottom;html=1;verticalAlign=top;aspect=fixed;align=center;pointerEvents=1;shape=mxgraph.cisco19.rect;prIcon=next_generation_intrusion_prevention_system;fillColor=#FAFAFA;strokeColor=#005073;fontStyle=1;fontSize=23;" vertex="1" parent="1">
          <mxGeometry x="500" y="1149.41" width="120" height="120" as="geometry" />
        </mxCell>
        <mxCell id="ooJVKOI1h2YbClv-LT1r-5" value="Alarm System" style="html=1;verticalLabelPosition=bottom;align=center;labelBackgroundColor=#ffffff;verticalAlign=top;strokeWidth=2;strokeColor=#0080F0;shadow=0;dashed=0;shape=mxgraph.ios7.icons.bell;fontSize=23;fontStyle=1" vertex="1" parent="1">
          <mxGeometry x="750" y="1089.41" width="120" height="110" as="geometry" />
        </mxCell>
        <mxCell id="ooJVKOI1h2YbClv-LT1r-6" value="" style="shape=image;html=1;verticalAlign=top;verticalLabelPosition=bottom;labelBackgroundColor=#ffffff;imageAspect=0;aspect=fixed;image=https://cdn2.iconfinder.com/data/icons/boxicons-solid-vol-1/24/bxs-cctv-128.png;fontSize=24;" vertex="1" parent="1">
          <mxGeometry x="920" y="1140" width="128" height="128" as="geometry" />
        </mxCell>
        <mxCell id="ooJVKOI1h2YbClv-LT1r-7" value="" style="shape=image;html=1;verticalAlign=top;verticalLabelPosition=bottom;labelBackgroundColor=#ffffff;imageAspect=0;aspect=fixed;image=https://cdn2.iconfinder.com/data/icons/boxicons-regular-vol-1/24/bx-cctv-128.png;fontSize=24;" vertex="1" parent="1">
          <mxGeometry x="736" y="961.41" width="134" height="134" as="geometry" />
        </mxCell>
        <mxCell id="ooJVKOI1h2YbClv-LT1r-8" value="" style="shape=image;html=1;verticalAlign=top;verticalLabelPosition=bottom;labelBackgroundColor=#ffffff;imageAspect=0;aspect=fixed;image=https://cdn0.iconfinder.com/data/icons/security-double-color-red-and-black-vol-1/52/camera__record__security__cctv-128.png;fontSize=24;" vertex="1" parent="1">
          <mxGeometry x="926" y="961.41" width="128" height="128" as="geometry" />
        </mxCell>
        <mxCell id="ooJVKOI1h2YbClv-LT1r-9" value="" style="sketch=0;html=1;dashed=0;whitespace=wrap;fillColor=#2875E2;strokeColor=#ffffff;points=[[0.005,0.63,0],[0.1,0.2,0],[0.9,0.2,0],[0.5,0,0],[0.995,0.63,0],[0.72,0.99,0],[0.5,1,0],[0.28,0.99,0]];shape=mxgraph.kubernetes.icon;prIcon=kubelet;fontSize=26;" vertex="1" parent="1">
          <mxGeometry x="250" y="570" width="240" height="150" as="geometry" />
        </mxCell>
        <mxCell id="ooJVKOI1h2YbClv-LT1r-10" value="VLAN10 EVIL - 10.10.10.0/24&lt;br&gt;TrueNAS" style="rounded=1;whiteSpace=wrap;html=1;shadow=0;comic=0;strokeColor=#006EAF;strokeWidth=2;fillColor=#1ba1e2;fontFamily=Verdana;fontSize=28;align=center;arcSize=11;verticalAlign=top;fontColor=#ffffff;" vertex="1" parent="1">
          <mxGeometry x="70" y="2060" width="1065" height="340" as="geometry" />
        </mxCell>
      </root>
    </mxGraphModel>
  </diagram>
</mxfile>
